<svg width="1650" height="78" viewBox="0 0 1650 78" fill="none" xmlns="http://www.w3.org/2000/svg">
<path d="M1049.8 28.1798C928.415 20.2465 701.144 -7.99995 610.5 0.5L659.987 -17H1649.5C1582.8 91.3744 1201.52 38.0964 1049.8 28.1798Z" fill="url(#paint0_linear_38_3)"/>
<path d="M937 49.2851C826.477 41.3522 617.036 23.7704 534.5 32.27L572.5 0H1473.5C1412.77 108.37 1075.15 59.2014 937 49.2851Z" fill="url(#paint1_linear_38_3)"/>
<path d="M732.913 53.5282C465 0 82.3517 59.5426 0 66.7599V0H1247C1186.4 92.0203 917.46 90.4002 732.913 53.5282Z" fill="url(#paint2_linear_38_3)"/>
<defs>
<linearGradient id="paint0_linear_38_3" x1="659.987" y1="14.9412" x2="1649.5" y2="14.9412" gradientUnits="userSpaceOnUse">
<stop offset="0.383678" stop-color="#BCD77E"/>
<stop offset="0.996656" stop-color="#FDD966"/>
</linearGradient>
<linearGradient id="paint1_linear_38_3" x1="572.5" y1="31.94" x2="1473.5" y2="31.94" gradientUnits="userSpaceOnUse">
<stop offset="0.550527" stop-color="#FDD966"/>
<stop offset="1" stop-color="#BCD77E"/>
</linearGradient>
<linearGradient id="paint2_linear_38_3" x1="348.013" y1="33.9456" x2="1254.76" y2="33.9456" gradientUnits="userSpaceOnUse">
<stop stop-color="#FBFDFF"/>
<stop offset="1" stop-color="#D8EFFF"/>
</linearGradient>
</defs>
</svg>
